<svg xmlns="http://www.w3.org/2000/svg" xmlns:xlink="http://www.w3.org/1999/xlink" width="500" zoomAndPan="magnify" viewBox="0 0 375 374.999991" height="500" preserveAspectRatio="xMidYMid meet" version="1.2"><defs><clipPath id="d36ebf66cb"><path d="M 227 65 L 369 65 L 369 355 L 227 355 Z M 227 65 "/></clipPath><clipPath id="083876f056"><path d="M 35 18.75 L 300 18.75 L 300 171 L 35 171 Z M 35 18.75 "/></clipPath></defs><g id="2cd00e48f7"><g clip-rule="nonzero" clip-path="url(#d36ebf66cb)"><path style=" stroke:none;fill-rule:nonzero;fill:#1743c0;fill-opacity:1;" d="M 355.078125 211.324219 L 369.410156 186.578125 L 299.4375 65.660156 L 254.714844 143.363281 C 253.34375 143.105469 251.941406 142.9375 250.507812 142.9375 C 237.898438 142.9375 227.636719 153.199219 227.636719 165.808594 C 227.636719 178.417969 237.898438 188.679688 250.507812 188.679688 C 251.941406 188.679688 253.34375 188.511719 254.714844 188.253906 L 302.839844 271.355469 L 281.019531 309.125 C 271.777344 307.433594 262.066406 311.535156 257.09375 320.132812 C 250.8125 331.050781 254.5625 345.0625 265.480469 351.363281 C 269.066406 353.449219 273 354.425781 276.871094 354.425781 C 284.800781 354.425781 292.484375 350.308594 296.726562 342.992188 C 301.695312 334.390625 300.355469 323.914062 294.238281 316.75 L 320.480469 271.371094 L 267.875 180.554688 C 271.261719 176.558594 273.394531 171.464844 273.394531 165.824219 C 273.394531 160.183594 271.277344 155.089844 267.875 151.109375 L 299.484375 96.171875 L 351.800781 186.59375 L 341.859375 203.746094 C 336.675781 202.785156 331.167969 203.488281 326.273438 206.339844 C 315.34375 212.652344 311.605469 226.679688 317.917969 237.597656 C 322.160156 244.898438 329.859375 249.003906 337.773438 249.003906 C 341.660156 249.003906 345.59375 248.027344 349.175781 245.9375 C 360.09375 239.625 363.832031 225.613281 357.519531 214.695312 C 356.816406 213.472656 355.976562 212.375 355.09375 211.339844 Z M 283.519531 335.367188 C 281.402344 338.996094 276.703125 340.214844 273.089844 338.171875 C 269.460938 336.066406 268.210938 331.386719 270.285156 327.742188 C 271.703125 325.300781 274.28125 323.929688 276.917969 323.929688 C 278.214844 323.929688 279.523438 324.25 280.714844 324.9375 C 284.359375 327.054688 285.609375 331.707031 283.519531 335.367188 Z M 242.882812 165.824219 C 242.882812 161.632812 246.316406 158.199219 250.507812 158.199219 C 254.703125 158.199219 258.132812 161.632812 258.132812 165.824219 C 258.132812 170.019531 254.703125 173.449219 250.507812 173.449219 C 246.316406 173.449219 242.882812 170.019531 242.882812 165.824219 Z M 345.0625 228.097656 C 344.542969 230.0625 343.292969 231.695312 341.539062 232.734375 C 337.863281 234.789062 333.199219 233.570312 331.09375 229.941406 C 328.988281 226.296875 330.238281 221.632812 333.882812 219.511719 C 335.089844 218.828125 336.398438 218.507812 337.695312 218.507812 C 340.332031 218.507812 342.894531 219.863281 344.3125 222.304688 C 345.320312 224.070312 345.609375 226.128906 345.074219 228.097656 Z M 345.0625 228.097656 "/></g><g clip-rule="nonzero" clip-path="url(#083876f056)"><path style=" stroke:none;fill-rule:nonzero;fill:#277df1;fill-opacity:1;" d="M 146.53125 170.324219 C 159.144531 170.324219 169.40625 160.0625 169.40625 147.449219 C 169.40625 141.792969 167.253906 136.671875 163.839844 132.675781 L 211.746094 49.34375 L 255.433594 49.34375 C 258.589844 58.203125 266.976562 64.59375 276.902344 64.59375 C 289.511719 64.59375 299.773438 54.332031 299.773438 41.722656 C 299.773438 29.113281 289.511719 18.851562 276.902344 18.851562 C 266.976562 18.851562 258.589844 25.238281 255.433594 34.097656 L 202.933594 34.097656 L 150.664062 124.992188 C 149.324219 124.746094 147.933594 124.578125 146.515625 124.578125 C 136.605469 124.578125 128.234375 130.953125 125.0625 139.78125 L 61.832031 139.78125 L 114.023438 49.34375 L 133.90625 49.34375 C 135.738281 54.46875 139.03125 58.875 143.789062 61.605469 C 147.296875 63.648438 151.214844 64.683594 155.179688 64.683594 C 157.160156 64.683594 159.171875 64.410156 161.140625 63.890625 C 167.054688 62.304688 171.980469 58.496094 175.03125 53.203125 C 181.3125 42.269531 177.546875 28.273438 166.628906 21.992188 C 161.339844 18.925781 155.164062 18.117188 149.277344 19.703125 C 143.359375 21.289062 138.4375 25.101562 135.402344 30.378906 C 134.699219 31.566406 134.167969 32.832031 133.710938 34.097656 L 105.210938 34.097656 L 35.421875 155.027344 L 125.0625 155.027344 C 128.203125 163.902344 136.605469 170.324219 146.546875 170.324219 Z M 276.902344 34.097656 C 281.09375 34.097656 284.527344 37.527344 284.527344 41.722656 C 284.527344 45.914062 281.09375 49.34375 276.902344 49.34375 C 272.710938 49.34375 269.277344 45.914062 269.277344 41.722656 C 269.277344 37.527344 272.710938 34.097656 276.902344 34.097656 Z M 148.605469 37.984375 C 149.613281 36.230469 151.257812 34.964844 153.226562 34.433594 C 153.882812 34.265625 154.554688 34.175781 155.222656 34.175781 C 156.535156 34.175781 157.832031 34.507812 159.003906 35.179688 C 160.757812 36.203125 162.023438 37.847656 162.542969 39.816406 C 163.078125 41.78125 162.800781 43.839844 161.78125 45.609375 C 160.773438 47.363281 159.128906 48.628906 157.160156 49.164062 C 155.179688 49.664062 153.136719 49.421875 151.367188 48.386719 C 149.613281 47.378906 148.347656 45.730469 147.8125 43.765625 C 147.296875 41.796875 147.554688 39.738281 148.589844 37.96875 Z M 146.53125 139.828125 C 150.726562 139.828125 154.15625 143.257812 154.15625 147.449219 C 154.15625 151.644531 150.726562 155.074219 146.53125 155.074219 C 142.339844 155.074219 138.910156 151.644531 138.910156 147.449219 C 138.910156 143.257812 142.339844 139.828125 146.53125 139.828125 Z M 146.53125 139.828125 "/></g><path style=" stroke:none;fill-rule:nonzero;fill:#5ce1e6;fill-opacity:1;" d="M 205.542969 246.667969 C 205.542969 234.058594 195.28125 223.796875 182.671875 223.796875 C 172.742188 223.796875 164.359375 230.1875 161.199219 239.046875 L 65.0625 239.183594 L 43.242188 201.429688 C 49.34375 194.261719 50.699219 183.800781 45.730469 175.203125 C 39.445312 164.300781 25.433594 160.5625 14.5 166.816406 C 3.582031 173.128906 -0.167969 187.140625 6.128906 198.074219 C 10.351562 205.394531 18.054688 209.511719 25.984375 209.511719 C 27.339844 209.511719 28.679688 209.234375 30.023438 208.992188 L 56.296875 254.445312 L 161.214844 254.308594 C 164.371094 263.167969 172.757812 269.554688 182.683594 269.554688 C 184.117188 269.554688 185.507812 269.386719 186.878906 269.128906 L 218.441406 323.976562 L 114.023438 323.976562 L 104.113281 306.851562 C 107.558594 302.84375 109.722656 297.6875 109.722656 291.984375 C 109.722656 279.390625 99.433594 269.144531 86.820312 269.144531 C 74.210938 269.175781 63.964844 279.4375 63.980469 292.046875 C 63.980469 298.144531 66.359375 303.894531 70.675781 308.210938 C 74.988281 312.523438 80.722656 314.886719 86.820312 314.886719 L 86.867188 314.886719 C 88.253906 314.886719 89.582031 314.71875 90.90625 314.476562 L 105.242188 339.222656 L 244.789062 339.222656 L 200.023438 261.414062 C 203.421875 257.417969 205.542969 252.3125 205.542969 246.683594 Z M 19.320312 190.464844 C 17.214844 186.820312 18.464844 182.140625 22.109375 180.035156 C 25.691406 177.886719 30.417969 179.167969 32.539062 182.824219 C 34.644531 186.453125 33.394531 191.136719 29.734375 193.253906 C 26.121094 195.328125 21.40625 194.09375 19.320312 190.464844 Z M 86.835938 299.625 C 84.808594 299.625 82.886719 298.832031 81.453125 297.398438 C 80.007812 295.949219 79.226562 294.042969 79.226562 292 C 79.226562 287.792969 82.644531 284.363281 86.835938 284.363281 C 91.03125 284.363281 94.460938 287.792969 94.476562 291.96875 C 94.476562 296.179688 91.0625 299.609375 86.851562 299.609375 Z M 175.046875 246.667969 C 175.046875 242.476562 178.476562 239.046875 182.671875 239.046875 C 186.863281 239.046875 190.292969 242.476562 190.292969 246.667969 C 190.292969 250.863281 186.863281 254.292969 182.671875 254.292969 C 178.476562 254.292969 175.046875 250.863281 175.046875 246.667969 Z M 175.046875 246.667969 "/><g style="fill:#ffffff;fill-opacity:1;"><g transform="translate(173.315938, 219.402014)"><path style="stroke:none" d="M 3.46875 -0.5625 L 3.46875 0 L 0.515625 0 L 0.515625 -4.453125 L 3.390625 -4.453125 L 3.390625 -3.90625 L 1.109375 -3.90625 L 1.109375 -2.546875 L 3.140625 -2.546875 L 3.140625 -2 L 1.109375 -2 L 1.109375 -0.5625 Z M 3.46875 -0.5625 "/></g></g><g style="fill:#ffffff;fill-opacity:1;"><g transform="translate(178.904572, 219.402014)"><path style="stroke:none" d="M 3.65625 -4.453125 L 3.65625 -3.90625 L 2.1875 -3.90625 L 2.1875 0 L 1.578125 0 L 1.578125 -3.90625 L 0.109375 -3.90625 L 0.109375 -4.453125 Z M 3.65625 -4.453125 "/></g></g><g style="fill:#ffffff;fill-opacity:1;"><g transform="translate(184.549945, 219.402014)"><path style="stroke:none" d="M 1.109375 -1.59375 L 1.109375 0 L 0.515625 0 L 0.515625 -4.453125 L 2.015625 -4.453125 C 2.648438 -4.453125 3.101562 -4.34375 3.375 -4.125 C 3.644531 -3.90625 3.78125 -3.550781 3.78125 -3.0625 C 3.78125 -2.664062 3.691406 -2.351562 3.515625 -2.125 C 3.347656 -1.894531 3.085938 -1.742188 2.734375 -1.671875 L 3.90625 0 L 3.171875 0 L 2.09375 -1.59375 Z M 3.171875 -3.0625 C 3.171875 -3.363281 3.082031 -3.578125 2.90625 -3.703125 C 2.726562 -3.835938 2.429688 -3.90625 2.015625 -3.90625 L 1.109375 -3.90625 L 1.109375 -2.125 L 2.015625 -2.125 C 2.421875 -2.125 2.710938 -2.195312 2.890625 -2.34375 C 3.078125 -2.488281 3.171875 -2.726562 3.171875 -3.0625 Z M 3.171875 -3.0625 "/></g></g><g style="fill:#ffffff;fill-opacity:1;"><g transform="translate(190.535745, 219.402014)"><path style="stroke:none" d="M 4.28125 -2.234375 C 4.28125 -1.421875 4.125 -0.832031 3.8125 -0.46875 C 3.507812 -0.113281 3.007812 0.0625 2.3125 0.0625 C 1.550781 0.0625 1.023438 -0.101562 0.734375 -0.4375 C 0.453125 -0.769531 0.3125 -1.367188 0.3125 -2.234375 C 0.3125 -3.035156 0.46875 -3.613281 0.78125 -3.96875 C 1.09375 -4.332031 1.601562 -4.515625 2.3125 -4.515625 C 3.0625 -4.515625 3.578125 -4.347656 3.859375 -4.015625 C 4.140625 -3.679688 4.28125 -3.085938 4.28125 -2.234375 Z M 1.140625 -0.953125 C 1.234375 -0.785156 1.363281 -0.671875 1.53125 -0.609375 C 1.707031 -0.546875 1.96875 -0.515625 2.3125 -0.515625 C 2.832031 -0.515625 3.1875 -0.640625 3.375 -0.890625 C 3.570312 -1.140625 3.671875 -1.585938 3.671875 -2.234375 C 3.671875 -2.554688 3.65625 -2.816406 3.625 -3.015625 C 3.59375 -3.222656 3.539062 -3.394531 3.46875 -3.53125 C 3.375 -3.6875 3.238281 -3.796875 3.0625 -3.859375 C 2.894531 -3.929688 2.644531 -3.96875 2.3125 -3.96875 C 1.78125 -3.96875 1.414062 -3.835938 1.21875 -3.578125 C 1.019531 -3.328125 0.921875 -2.878906 0.921875 -2.234375 C 0.921875 -1.910156 0.9375 -1.644531 0.96875 -1.4375 C 1.007812 -1.238281 1.066406 -1.078125 1.140625 -0.953125 Z M 1.140625 -0.953125 "/></g></g><g style="fill:#ffffff;fill-opacity:1;"><g transform="translate(197.017997, 219.402014)"><path style="stroke:none" d="M 4.15625 -4.453125 L 4.15625 0 L 3.546875 0 L 1.078125 -3.46875 L 1.078125 0 L 0.515625 0 L 0.515625 -4.453125 L 1.125 -4.453125 L 3.578125 -0.9375 L 3.578125 -4.453125 Z M 4.15625 -4.453125 "/></g></g></g></svg>