<svg xmlns="http://www.w3.org/2000/svg" xmlns:xlink="http://www.w3.org/1999/xlink" width="500" zoomAndPan="magnify" viewBox="0 0 375 374.999991" height="500" preserveAspectRatio="xMidYMid meet" version="1.2"><defs><clipPath id="abe11b49c1"><path d="M 196 149 L 227.464844 149 L 227.464844 212.601562 L 196 212.601562 Z M 196 149 "/></clipPath><clipPath id="0016e6c5ac"><path d="M 154 139.101562 L 213 139.101562 L 213 173 L 154 173 Z M 154 139.101562 "/></clipPath><clipPath id="ec95006991"><path d="M 147.214844 170 L 201 170 L 201 209 L 147.214844 209 Z M 147.214844 170 "/></clipPath></defs><g id="5b43db0e57"><g clip-rule="nonzero" clip-path="url(#abe11b49c1)"><path style=" stroke:none;fill-rule:nonzero;fill:#1743c0;fill-opacity:1;" d="M 224.4375 180.980469 L 227.554688 175.601562 L 212.335938 149.304688 L 202.609375 166.203125 C 202.3125 166.144531 202.007812 166.109375 201.695312 166.109375 C 198.953125 166.109375 196.722656 168.339844 196.722656 171.082031 C 196.722656 173.824219 198.953125 176.058594 201.695312 176.058594 C 202.007812 176.058594 202.3125 176.019531 202.609375 175.964844 L 213.074219 194.039062 L 208.332031 202.25 C 206.320312 201.882812 204.207031 202.777344 203.128906 204.644531 C 201.761719 207.019531 202.578125 210.066406 204.953125 211.4375 C 205.730469 211.890625 206.585938 212.105469 207.429688 212.105469 C 209.152344 212.105469 210.824219 211.207031 211.746094 209.617188 C 212.828125 207.746094 212.535156 205.46875 211.207031 203.910156 L 216.914062 194.039062 L 205.472656 174.289062 C 206.207031 173.421875 206.671875 172.3125 206.671875 171.085938 C 206.671875 169.859375 206.210938 168.753906 205.472656 167.886719 L 212.347656 155.9375 L 223.722656 175.601562 L 221.5625 179.332031 C 220.433594 179.125 219.238281 179.277344 218.171875 179.898438 C 215.796875 181.269531 214.984375 184.320312 216.355469 186.695312 C 217.277344 188.285156 218.953125 189.175781 220.671875 189.175781 C 221.519531 189.175781 222.375 188.964844 223.152344 188.507812 C 225.527344 187.136719 226.339844 184.089844 224.96875 181.714844 C 224.816406 181.449219 224.632812 181.210938 224.441406 180.984375 Z M 208.875 207.957031 C 208.414062 208.746094 207.390625 209.011719 206.605469 208.570312 C 205.816406 208.109375 205.546875 207.09375 205.996094 206.300781 C 206.304688 205.769531 206.863281 205.472656 207.4375 205.472656 C 207.71875 205.472656 208.003906 205.542969 208.265625 205.691406 C 209.058594 206.152344 209.328125 207.164062 208.875 207.957031 Z M 200.035156 171.085938 C 200.035156 170.175781 200.78125 169.429688 201.695312 169.429688 C 202.605469 169.429688 203.351562 170.175781 203.351562 171.085938 C 203.351562 172 202.605469 172.746094 201.695312 172.746094 C 200.78125 172.746094 200.035156 172 200.035156 171.085938 Z M 222.257812 184.628906 C 222.144531 185.058594 221.875 185.414062 221.492188 185.636719 C 220.691406 186.085938 219.679688 185.820312 219.21875 185.03125 C 218.761719 184.238281 219.035156 183.222656 219.828125 182.761719 C 220.089844 182.613281 220.375 182.542969 220.65625 182.542969 C 221.230469 182.542969 221.789062 182.839844 222.097656 183.371094 C 222.316406 183.753906 222.378906 184.203125 222.261719 184.628906 Z M 222.257812 184.628906 "/></g><g clip-rule="nonzero" clip-path="url(#0016e6c5ac)"><path style=" stroke:none;fill-rule:nonzero;fill:#277df1;fill-opacity:1;" d="M 179.082031 172.066406 C 181.824219 172.066406 184.054688 169.832031 184.054688 167.089844 C 184.054688 165.859375 183.589844 164.746094 182.847656 163.878906 L 193.265625 145.753906 L 202.765625 145.753906 C 203.453125 147.683594 205.277344 149.070312 207.433594 149.070312 C 210.175781 149.070312 212.410156 146.839844 212.410156 144.097656 C 212.410156 141.355469 210.175781 139.121094 207.433594 139.121094 C 205.277344 139.121094 203.453125 140.511719 202.765625 142.4375 L 191.347656 142.4375 L 179.980469 162.207031 C 179.6875 162.152344 179.386719 162.117188 179.078125 162.117188 C 176.921875 162.117188 175.101562 163.503906 174.414062 165.421875 L 160.660156 165.421875 L 172.011719 145.753906 L 176.335938 145.753906 C 176.734375 146.871094 177.449219 147.828125 178.484375 148.421875 C 179.25 148.867188 180.101562 149.089844 180.960938 149.089844 C 181.394531 149.089844 181.832031 149.03125 182.257812 148.917969 C 183.546875 148.574219 184.617188 147.746094 185.28125 146.59375 C 186.644531 144.214844 185.828125 141.171875 183.453125 139.804688 C 182.300781 139.140625 180.960938 138.964844 179.679688 139.308594 C 178.394531 139.652344 177.320312 140.480469 176.660156 141.628906 C 176.507812 141.886719 176.394531 142.164062 176.292969 142.4375 L 170.097656 142.4375 L 154.917969 168.738281 L 174.414062 168.738281 C 175.097656 170.667969 176.921875 172.066406 179.085938 172.066406 Z M 207.433594 142.4375 C 208.347656 142.4375 209.09375 143.183594 209.09375 144.097656 C 209.09375 145.007812 208.347656 145.753906 207.433594 145.753906 C 206.523438 145.753906 205.777344 145.007812 205.777344 144.097656 C 205.777344 143.183594 206.523438 142.4375 207.433594 142.4375 Z M 179.535156 143.285156 C 179.753906 142.902344 180.109375 142.628906 180.539062 142.511719 C 180.679688 142.476562 180.828125 142.457031 180.972656 142.457031 C 181.257812 142.457031 181.539062 142.527344 181.796875 142.675781 C 182.175781 142.898438 182.453125 143.253906 182.5625 143.683594 C 182.679688 144.109375 182.621094 144.558594 182.398438 144.941406 C 182.179688 145.324219 181.820312 145.597656 181.394531 145.714844 C 180.960938 145.824219 180.519531 145.773438 180.132812 145.546875 C 179.753906 145.328125 179.476562 144.96875 179.359375 144.542969 C 179.25 144.113281 179.304688 143.664062 179.53125 143.28125 Z M 179.082031 165.433594 C 179.996094 165.433594 180.742188 166.179688 180.742188 167.089844 C 180.742188 168.003906 179.996094 168.75 179.082031 168.75 C 178.171875 168.75 177.425781 168.003906 177.425781 167.089844 C 177.425781 166.179688 178.171875 165.433594 179.082031 165.433594 Z M 179.082031 165.433594 "/></g><g clip-rule="nonzero" clip-path="url(#ec95006991)"><path style=" stroke:none;fill-rule:nonzero;fill:#5ce1e6;fill-opacity:1;" d="M 191.914062 188.667969 C 191.914062 185.925781 189.683594 183.695312 186.941406 183.695312 C 184.78125 183.695312 182.957031 185.085938 182.273438 187.011719 L 161.363281 187.039062 L 156.617188 178.828125 C 157.945312 177.269531 158.242188 174.996094 157.160156 173.125 C 155.792969 170.753906 152.746094 169.941406 150.367188 171.300781 C 147.992188 172.675781 147.179688 175.722656 148.546875 178.101562 C 149.464844 179.691406 151.140625 180.585938 152.863281 180.585938 C 153.160156 180.585938 153.453125 180.527344 153.742188 180.476562 L 159.457031 190.359375 L 182.277344 190.332031 C 182.960938 192.257812 184.785156 193.644531 186.945312 193.644531 C 187.257812 193.644531 187.558594 193.609375 187.855469 193.554688 L 194.722656 205.480469 L 172.011719 205.480469 L 169.855469 201.757812 C 170.605469 200.886719 171.078125 199.765625 171.078125 198.523438 C 171.078125 195.785156 168.839844 193.558594 166.097656 193.558594 C 163.355469 193.5625 161.125 195.796875 161.128906 198.539062 C 161.128906 199.863281 161.644531 201.113281 162.585938 202.050781 C 163.523438 202.992188 164.769531 203.503906 166.097656 203.503906 L 166.105469 203.503906 C 166.40625 203.503906 166.695312 203.46875 166.984375 203.414062 L 170.101562 208.796875 L 200.453125 208.796875 L 190.714844 191.875 C 191.453125 191.007812 191.914062 189.894531 191.914062 188.671875 Z M 151.417969 176.445312 C 150.957031 175.652344 151.230469 174.636719 152.023438 174.175781 C 152.800781 173.710938 153.832031 173.988281 154.292969 174.785156 C 154.75 175.574219 154.476562 176.589844 153.679688 177.050781 C 152.894531 177.503906 151.871094 177.234375 151.417969 176.445312 Z M 166.101562 200.1875 C 165.660156 200.1875 165.242188 200.011719 164.929688 199.703125 C 164.613281 199.386719 164.445312 198.972656 164.445312 198.527344 C 164.445312 197.613281 165.1875 196.867188 166.101562 196.867188 C 167.011719 196.867188 167.757812 197.613281 167.761719 198.519531 C 167.761719 199.4375 167.019531 200.183594 166.101562 200.183594 Z M 185.285156 188.667969 C 185.285156 187.757812 186.03125 187.011719 186.941406 187.011719 C 187.851562 187.011719 188.601562 187.757812 188.601562 188.667969 C 188.601562 189.582031 187.851562 190.328125 186.941406 190.328125 C 186.03125 190.328125 185.285156 189.582031 185.285156 188.667969 Z M 185.285156 188.667969 "/></g><g style="fill:#ffffff;fill-opacity:1;"><g transform="translate(173.315938, 219.402014)"><path style="stroke:none" d="M 3.46875 -0.5625 L 3.46875 0 L 0.515625 0 L 0.515625 -4.453125 L 3.390625 -4.453125 L 3.390625 -3.90625 L 1.109375 -3.90625 L 1.109375 -2.546875 L 3.140625 -2.546875 L 3.140625 -2 L 1.109375 -2 L 1.109375 -0.5625 Z M 3.46875 -0.5625 "/></g></g><g style="fill:#ffffff;fill-opacity:1;"><g transform="translate(178.904572, 219.402014)"><path style="stroke:none" d="M 3.65625 -4.453125 L 3.65625 -3.90625 L 2.1875 -3.90625 L 2.1875 0 L 1.578125 0 L 1.578125 -3.90625 L 0.109375 -3.90625 L 0.109375 -4.453125 Z M 3.65625 -4.453125 "/></g></g><g style="fill:#ffffff;fill-opacity:1;"><g transform="translate(184.549945, 219.402014)"><path style="stroke:none" d="M 1.109375 -1.59375 L 1.109375 0 L 0.515625 0 L 0.515625 -4.453125 L 2.015625 -4.453125 C 2.648438 -4.453125 3.101562 -4.34375 3.375 -4.125 C 3.644531 -3.90625 3.78125 -3.550781 3.78125 -3.0625 C 3.78125 -2.664062 3.691406 -2.351562 3.515625 -2.125 C 3.347656 -1.894531 3.085938 -1.742188 2.734375 -1.671875 L 3.90625 0 L 3.171875 0 L 2.09375 -1.59375 Z M 3.171875 -3.0625 C 3.171875 -3.363281 3.082031 -3.578125 2.90625 -3.703125 C 2.726562 -3.835938 2.429688 -3.90625 2.015625 -3.90625 L 1.109375 -3.90625 L 1.109375 -2.125 L 2.015625 -2.125 C 2.421875 -2.125 2.710938 -2.195312 2.890625 -2.34375 C 3.078125 -2.488281 3.171875 -2.726562 3.171875 -3.0625 Z M 3.171875 -3.0625 "/></g></g><g style="fill:#ffffff;fill-opacity:1;"><g transform="translate(190.535745, 219.402014)"><path style="stroke:none" d="M 4.28125 -2.234375 C 4.28125 -1.421875 4.125 -0.832031 3.8125 -0.46875 C 3.507812 -0.113281 3.007812 0.0625 2.3125 0.0625 C 1.550781 0.0625 1.023438 -0.101562 0.734375 -0.4375 C 0.453125 -0.769531 0.3125 -1.367188 0.3125 -2.234375 C 0.3125 -3.035156 0.46875 -3.613281 0.78125 -3.96875 C 1.09375 -4.332031 1.601562 -4.515625 2.3125 -4.515625 C 3.0625 -4.515625 3.578125 -4.347656 3.859375 -4.015625 C 4.140625 -3.679688 4.28125 -3.085938 4.28125 -2.234375 Z M 1.140625 -0.953125 C 1.234375 -0.785156 1.363281 -0.671875 1.53125 -0.609375 C 1.707031 -0.546875 1.96875 -0.515625 2.3125 -0.515625 C 2.832031 -0.515625 3.1875 -0.640625 3.375 -0.890625 C 3.570312 -1.140625 3.671875 -1.585938 3.671875 -2.234375 C 3.671875 -2.554688 3.65625 -2.816406 3.625 -3.015625 C 3.59375 -3.222656 3.539062 -3.394531 3.46875 -3.53125 C 3.375 -3.6875 3.238281 -3.796875 3.0625 -3.859375 C 2.894531 -3.929688 2.644531 -3.96875 2.3125 -3.96875 C 1.78125 -3.96875 1.414062 -3.835938 1.21875 -3.578125 C 1.019531 -3.328125 0.921875 -2.878906 0.921875 -2.234375 C 0.921875 -1.910156 0.9375 -1.644531 0.96875 -1.4375 C 1.007812 -1.238281 1.066406 -1.078125 1.140625 -0.953125 Z M 1.140625 -0.953125 "/></g></g><g style="fill:#ffffff;fill-opacity:1;"><g transform="translate(197.017997, 219.402014)"><path style="stroke:none" d="M 4.15625 -4.453125 L 4.15625 0 L 3.546875 0 L 1.078125 -3.46875 L 1.078125 0 L 0.515625 0 L 0.515625 -4.453125 L 1.125 -4.453125 L 3.578125 -0.9375 L 3.578125 -4.453125 Z M 4.15625 -4.453125 "/></g></g></g></svg>