<svg xmlns="http://www.w3.org/2000/svg" xmlns:xlink="http://www.w3.org/1999/xlink" width="400" zoomAndPan="magnify" viewBox="0 0 300 74.999997" height="100" preserveAspectRatio="xMidYMid meet" version="1.2"><defs><clipPath id="f6f1ba72d1"><path d="M 50 10 L 82.5 10 L 82.5 75 L 50 75 Z M 50 10 "/></clipPath></defs><g id="a80514ea8c"><rect x="0" width="300" y="0" height="74.999997" style="fill:#ffffff;fill-opacity:1;stroke:none;"/><rect x="0" width="300" y="0" height="74.999997" style="fill:#ffffff;fill-opacity:1;stroke:none;"/><g clip-rule="nonzero" clip-path="url(#f6f1ba72d1)"><path style=" stroke:none;fill-rule:nonzero;fill:#1743c0;fill-opacity:1;" d="M 79.386719 42.609375 L 82.59375 37.078125 L 66.949219 10.042969 L 56.949219 27.417969 C 56.640625 27.359375 56.328125 27.320312 56.007812 27.320312 C 53.1875 27.320312 50.894531 29.617188 50.894531 32.433594 C 50.894531 35.253906 53.1875 37.546875 56.007812 37.546875 C 56.328125 37.546875 56.640625 37.511719 56.949219 37.453125 L 67.707031 56.03125 L 62.828125 64.476562 C 60.761719 64.097656 58.59375 65.015625 57.480469 66.9375 C 56.074219 69.378906 56.914062 72.511719 59.355469 73.921875 C 60.15625 74.386719 61.035156 74.605469 61.902344 74.605469 C 63.675781 74.605469 65.394531 73.683594 66.339844 72.046875 C 67.453125 70.125 67.152344 67.785156 65.785156 66.179688 L 71.652344 56.035156 L 59.890625 35.730469 C 60.648438 34.839844 61.125 33.699219 61.125 32.4375 C 61.125 31.175781 60.652344 30.039062 59.890625 29.148438 L 66.957031 16.867188 L 78.65625 37.082031 L 76.433594 40.917969 C 75.273438 40.703125 74.042969 40.859375 72.949219 41.496094 C 70.503906 42.90625 69.667969 46.042969 71.078125 48.484375 C 72.027344 50.117188 73.75 51.035156 75.519531 51.035156 C 76.386719 51.035156 77.265625 50.816406 78.066406 50.347656 C 80.507812 48.9375 81.34375 45.804688 79.933594 43.363281 C 79.777344 43.089844 79.589844 42.847656 79.390625 42.613281 Z M 63.386719 70.34375 C 62.914062 71.15625 61.863281 71.429688 61.058594 70.972656 C 60.246094 70.5 59.964844 69.453125 60.429688 68.640625 C 60.746094 68.09375 61.324219 67.785156 61.914062 67.785156 C 62.203125 67.785156 62.496094 67.859375 62.761719 68.011719 C 63.574219 68.484375 63.855469 69.527344 63.386719 70.34375 Z M 54.304688 32.4375 C 54.304688 31.5 55.070312 30.734375 56.007812 30.734375 C 56.945312 30.734375 57.710938 31.5 57.710938 32.4375 C 57.710938 33.375 56.945312 34.144531 56.007812 34.144531 C 55.070312 34.144531 54.304688 33.375 54.304688 32.4375 Z M 77.148438 46.359375 C 77.03125 46.800781 76.753906 47.164062 76.359375 47.398438 C 75.539062 47.859375 74.496094 47.585938 74.023438 46.773438 C 73.554688 45.957031 73.835938 44.914062 74.648438 44.441406 C 74.917969 44.289062 75.210938 44.214844 75.5 44.214844 C 76.089844 44.214844 76.664062 44.519531 76.980469 45.066406 C 77.207031 45.460938 77.269531 45.921875 77.152344 46.359375 Z M 77.148438 46.359375 "/></g><path style=" stroke:none;fill-rule:nonzero;fill:#277df1;fill-opacity:1;" d="M 32.761719 33.445312 C 35.582031 33.445312 37.875 31.148438 37.875 28.332031 C 37.875 27.066406 37.394531 25.921875 36.628906 25.027344 L 47.34375 6.394531 L 57.109375 6.394531 C 57.816406 8.375 59.691406 9.804688 61.910156 9.804688 C 64.726562 9.804688 67.023438 7.511719 67.023438 4.691406 C 67.023438 1.871094 64.726562 -0.421875 61.910156 -0.421875 C 59.691406 -0.421875 57.816406 1.007812 57.109375 2.988281 L 45.371094 2.988281 L 33.683594 23.308594 C 33.386719 23.253906 33.074219 23.214844 32.757812 23.214844 C 30.542969 23.214844 28.671875 24.640625 27.960938 26.617188 L 13.824219 26.617188 L 25.492188 6.394531 L 29.9375 6.394531 C 30.347656 7.542969 31.085938 8.527344 32.148438 9.136719 C 32.933594 9.59375 33.808594 9.824219 34.695312 9.824219 C 35.136719 9.824219 35.585938 9.765625 36.027344 9.648438 C 37.351562 9.292969 38.449219 8.441406 39.132812 7.257812 C 40.539062 4.8125 39.695312 1.683594 37.253906 0.28125 C 36.070312 -0.40625 34.691406 -0.585938 33.375 -0.230469 C 32.050781 0.125 30.949219 0.976562 30.273438 2.15625 C 30.117188 2.421875 29.996094 2.703125 29.894531 2.988281 L 23.523438 2.988281 L 7.917969 30.023438 L 27.960938 30.023438 C 28.664062 32.007812 30.542969 33.445312 32.765625 33.445312 Z M 61.910156 2.988281 C 62.847656 2.988281 63.613281 3.753906 63.613281 4.691406 C 63.613281 5.628906 62.847656 6.394531 61.910156 6.394531 C 60.972656 6.394531 60.203125 5.628906 60.203125 4.691406 C 60.203125 3.753906 60.972656 2.988281 61.910156 2.988281 Z M 33.226562 3.855469 C 33.449219 3.464844 33.816406 3.179688 34.257812 3.0625 C 34.40625 3.023438 34.554688 3.003906 34.703125 3.003906 C 34.996094 3.003906 35.289062 3.078125 35.550781 3.230469 C 35.941406 3.457031 36.226562 3.824219 36.339844 4.265625 C 36.460938 4.707031 36.398438 5.164062 36.171875 5.5625 C 35.945312 5.953125 35.578125 6.234375 35.136719 6.355469 C 34.695312 6.46875 34.238281 6.414062 33.84375 6.179688 C 33.449219 5.957031 33.167969 5.589844 33.046875 5.148438 C 32.933594 4.707031 32.988281 4.25 33.222656 3.851562 Z M 32.761719 26.625 C 33.699219 26.625 34.464844 27.394531 34.464844 28.332031 C 34.464844 29.269531 33.699219 30.035156 32.761719 30.035156 C 31.824219 30.035156 31.058594 29.269531 31.058594 28.332031 C 31.058594 27.394531 31.824219 26.625 32.761719 26.625 Z M 32.761719 26.625 "/><path style=" stroke:none;fill-rule:nonzero;fill:#5ce1e6;fill-opacity:1;" d="M 45.953125 50.511719 C 45.953125 47.695312 43.660156 45.398438 40.839844 45.398438 C 38.621094 45.398438 36.746094 46.828125 36.039062 48.808594 L 14.546875 48.839844 L 9.667969 40.398438 C 11.03125 38.796875 11.335938 36.457031 10.222656 34.535156 C 8.820312 32.097656 5.6875 31.261719 3.242188 32.660156 C 0.800781 34.070312 -0.0390625 37.203125 1.371094 39.648438 C 2.316406 41.285156 4.035156 42.207031 5.808594 42.207031 C 6.113281 42.207031 6.414062 42.144531 6.710938 42.089844 L 12.585938 52.25 L 36.042969 52.222656 C 36.75 54.203125 38.625 55.628906 40.84375 55.628906 C 41.164062 55.628906 41.476562 55.59375 41.78125 55.535156 L 48.839844 67.796875 L 25.492188 67.796875 L 23.277344 63.96875 C 24.046875 63.074219 24.53125 61.921875 24.53125 60.644531 C 24.53125 57.828125 22.230469 55.539062 19.410156 55.539062 C 16.59375 55.546875 14.300781 57.839844 14.304688 60.660156 C 14.304688 62.023438 14.835938 63.308594 15.800781 64.273438 C 16.765625 65.238281 18.046875 65.765625 19.410156 65.765625 L 19.421875 65.765625 C 19.730469 65.765625 20.027344 65.726562 20.324219 65.671875 L 23.53125 71.207031 L 54.730469 71.207031 L 44.71875 53.808594 C 45.480469 52.917969 45.953125 51.773438 45.953125 50.515625 Z M 4.320312 37.949219 C 3.847656 37.132812 4.128906 36.085938 4.941406 35.617188 C 5.746094 35.136719 6.800781 35.421875 7.273438 36.238281 C 7.746094 37.050781 7.464844 38.097656 6.648438 38.570312 C 5.839844 39.035156 4.785156 38.757812 4.320312 37.949219 Z M 19.414062 62.351562 C 18.960938 62.351562 18.53125 62.175781 18.210938 61.855469 C 17.886719 61.53125 17.714844 61.105469 17.714844 60.648438 C 17.714844 59.707031 18.476562 58.941406 19.414062 58.941406 C 20.351562 58.941406 21.121094 59.707031 21.121094 60.640625 C 21.121094 61.582031 20.359375 62.347656 19.417969 62.347656 Z M 39.136719 50.511719 C 39.136719 49.574219 39.902344 48.808594 40.839844 48.808594 C 41.777344 48.808594 42.546875 49.574219 42.546875 50.511719 C 42.546875 51.449219 41.777344 52.21875 40.839844 52.21875 C 39.902344 52.21875 39.136719 51.449219 39.136719 50.511719 Z M 39.136719 50.511719 "/><g style="fill:#1743c0;fill-opacity:1;"><g transform="translate(89.956091, 35.806761)"><path style="stroke:none" d="M 16.59375 -2.71875 L 16.59375 0 L 2.453125 0 L 2.453125 -21.3125 L 16.28125 -21.3125 L 16.28125 -18.703125 L 5.34375 -18.703125 L 5.34375 -12.171875 L 15.03125 -12.171875 L 15.03125 -9.625 L 5.34375 -9.625 L 5.34375 -2.71875 Z M 16.59375 -2.71875 "/></g></g><g style="fill:#1743c0;fill-opacity:1;"><g transform="translate(108.518052, 35.806761)"><path style="stroke:none" d="M 19.890625 -21.3125 L 19.890625 0 L 16.96875 0 L 5.171875 -16.59375 L 5.171875 0 L 2.453125 0 L 2.453125 -21.3125 L 5.375 -21.3125 L 17.171875 -4.484375 L 17.171875 -21.3125 Z M 19.890625 -21.3125 "/></g></g><g style="fill:#1743c0;fill-opacity:1;"><g transform="translate(131.635492, 35.806761)"><path style="stroke:none" d="M 15.984375 -8.734375 L 10.4375 -8.734375 L 10.4375 -11.28125 L 18.703125 -11.28125 L 18.703125 -1.015625 C 18.066406 -0.722656 16.929688 -0.4375 15.296875 -0.15625 C 13.671875 0.125 12.1875 0.265625 10.84375 0.265625 C 7.332031 0.265625 4.898438 -0.554688 3.546875 -2.203125 C 2.203125 -3.859375 1.53125 -6.679688 1.53125 -10.671875 C 1.53125 -14.429688 2.332031 -17.203125 3.9375 -18.984375 C 5.550781 -20.765625 8.082031 -21.65625 11.53125 -21.65625 C 12.707031 -21.65625 13.832031 -21.625 14.90625 -21.5625 C 15.988281 -21.507812 16.867188 -21.425781 17.546875 -21.3125 L 17.546875 -18.765625 C 16.640625 -18.859375 15.65625 -18.925781 14.59375 -18.96875 C 13.539062 -19.019531 12.519531 -19.046875 11.53125 -19.046875 C 8.945312 -19.046875 7.125 -18.410156 6.0625 -17.140625 C 5.007812 -15.867188 4.484375 -13.710938 4.484375 -10.671875 C 4.484375 -9.179688 4.566406 -7.929688 4.734375 -6.921875 C 4.910156 -5.910156 5.191406 -5.097656 5.578125 -4.484375 C 6.023438 -3.710938 6.664062 -3.160156 7.5 -2.828125 C 8.34375 -2.503906 9.570312 -2.34375 11.1875 -2.34375 C 11.820312 -2.34375 12.566406 -2.394531 13.421875 -2.5 C 14.285156 -2.601562 15.140625 -2.742188 15.984375 -2.921875 Z M 15.984375 -8.734375 "/></g></g><g style="fill:#1743c0;fill-opacity:1;"><g transform="translate(152.679173, 35.806761)"><path style="stroke:none" d="M 16.59375 -2.71875 L 16.59375 0 L 2.453125 0 L 2.453125 -21.3125 L 16.28125 -21.3125 L 16.28125 -18.703125 L 5.34375 -18.703125 L 5.34375 -12.171875 L 15.03125 -12.171875 L 15.03125 -9.625 L 5.34375 -9.625 L 5.34375 -2.71875 Z M 16.59375 -2.71875 "/></g></g><g style="fill:#1743c0;fill-opacity:1;"><g transform="translate(171.241134, 35.806761)"><path style="stroke:none" d="M 15.5 -2.71875 L 15.5 0 L 2.453125 0 L 2.453125 -21.3125 L 5.34375 -21.3125 L 5.34375 -2.71875 Z M 15.5 -2.71875 "/></g></g><g style="fill:#1743c0;fill-opacity:1;"><g transform="translate(188.069292, 35.806761)"><path style="stroke:none" d="M 16.59375 -2.71875 L 16.59375 0 L 2.453125 0 L 2.453125 -21.3125 L 16.28125 -21.3125 L 16.28125 -18.703125 L 5.34375 -18.703125 L 5.34375 -12.171875 L 15.03125 -12.171875 L 15.03125 -9.625 L 5.34375 -9.625 L 5.34375 -2.71875 Z M 16.59375 -2.71875 "/></g></g><g style="fill:#1743c0;fill-opacity:1;"><g transform="translate(206.631253, 35.806761)"><path style="stroke:none" d="M 17.546875 -21.3125 L 17.546875 -18.703125 L 10.46875 -18.703125 L 10.46875 0 L 7.578125 0 L 7.578125 -18.703125 L 0.515625 -18.703125 L 0.515625 -21.3125 Z M 17.546875 -21.3125 "/></g></g><g style="fill:#1743c0;fill-opacity:1;"><g transform="translate(225.465182, 35.806761)"><path style="stroke:none" d="M 5.34375 -7.65625 L 5.34375 0 L 2.453125 0 L 2.453125 -21.3125 L 9.6875 -21.3125 C 12.707031 -21.3125 14.867188 -20.796875 16.171875 -19.765625 C 17.472656 -18.734375 18.125 -17.03125 18.125 -14.65625 C 18.125 -12.789062 17.707031 -11.304688 16.875 -10.203125 C 16.050781 -9.109375 14.800781 -8.367188 13.125 -7.984375 L 18.703125 0 L 15.234375 0 L 10.0625 -7.65625 Z M 15.203125 -14.65625 C 15.203125 -16.101562 14.78125 -17.140625 13.9375 -17.765625 C 13.101562 -18.390625 11.6875 -18.703125 9.6875 -18.703125 L 5.34375 -18.703125 L 5.34375 -10.203125 L 9.6875 -10.203125 C 11.632812 -10.203125 13.039062 -10.550781 13.90625 -11.25 C 14.769531 -11.957031 15.203125 -13.09375 15.203125 -14.65625 Z M 15.203125 -14.65625 "/></g></g><g style="fill:#1743c0;fill-opacity:1;"><g transform="translate(245.930925, 35.806761)"><path style="stroke:none" d="M 20.53125 -10.703125 C 20.53125 -6.828125 19.785156 -4.03125 18.296875 -2.3125 C 16.816406 -0.59375 14.398438 0.265625 11.046875 0.265625 C 7.441406 0.265625 4.953125 -0.53125 3.578125 -2.125 C 2.210938 -3.71875 1.53125 -6.578125 1.53125 -10.703125 C 1.53125 -14.554688 2.273438 -17.34375 3.765625 -19.0625 C 5.265625 -20.789062 7.691406 -21.65625 11.046875 -21.65625 C 14.648438 -21.65625 17.128906 -20.851562 18.484375 -19.25 C 19.847656 -17.65625 20.53125 -14.804688 20.53125 -10.703125 Z M 5.46875 -4.5625 C 5.90625 -3.789062 6.539062 -3.242188 7.375 -2.921875 C 8.21875 -2.609375 9.441406 -2.453125 11.046875 -2.453125 C 13.566406 -2.453125 15.289062 -3.054688 16.21875 -4.265625 C 17.144531 -5.484375 17.609375 -7.628906 17.609375 -10.703125 C 17.609375 -12.242188 17.53125 -13.507812 17.375 -14.5 C 17.21875 -15.488281 16.96875 -16.285156 16.625 -16.890625 C 16.195312 -17.660156 15.566406 -18.210938 14.734375 -18.546875 C 13.910156 -18.878906 12.679688 -19.046875 11.046875 -19.046875 C 8.503906 -19.046875 6.769531 -18.429688 5.84375 -17.203125 C 4.914062 -15.984375 4.453125 -13.816406 4.453125 -10.703125 C 4.453125 -9.160156 4.53125 -7.894531 4.6875 -6.90625 C 4.851562 -5.925781 5.113281 -5.144531 5.46875 -4.5625 Z M 5.46875 -4.5625 "/></g></g><g style="fill:#1743c0;fill-opacity:1;"><g transform="translate(268.776397, 35.806761)"><path style="stroke:none" d="M 19.890625 -21.3125 L 19.890625 0 L 16.96875 0 L 5.171875 -16.59375 L 5.171875 0 L 2.453125 0 L 2.453125 -21.3125 L 5.375 -21.3125 L 17.171875 -4.484375 L 17.171875 -21.3125 Z M 19.890625 -21.3125 "/></g></g><g style="fill:#277df1;fill-opacity:1;"><g transform="translate(91.540305, 61.027309)"><path style="stroke:none" d="M 9.265625 -1.515625 L 9.265625 0 L 1.359375 0 L 1.359375 -11.90625 L 9.09375 -11.90625 L 9.09375 -10.4375 L 2.984375 -10.4375 L 2.984375 -6.796875 L 8.390625 -6.796875 L 8.390625 -5.375 L 2.984375 -5.375 L 2.984375 -1.515625 Z M 9.265625 -1.515625 "/></g></g><g style="fill:#277df1;fill-opacity:1;"><g transform="translate(106.49121, 61.027309)"><path style="stroke:none" d="M 11.109375 -11.90625 L 11.109375 0 L 9.46875 0 L 2.890625 -9.265625 L 2.890625 0 L 1.359375 0 L 1.359375 -11.90625 L 3 -11.90625 L 9.59375 -2.5 L 9.59375 -11.90625 Z M 11.109375 -11.90625 "/></g></g><g style="fill:#277df1;fill-opacity:1;"><g transform="translate(123.984039, 61.027309)"><path style="stroke:none" d="M 8.921875 -4.875 L 5.828125 -4.875 L 5.828125 -6.296875 L 10.4375 -6.296875 L 10.4375 -0.5625 C 10.082031 -0.40625 9.445312 -0.242188 8.53125 -0.078125 C 7.625 0.078125 6.800781 0.15625 6.0625 0.15625 C 4.09375 0.15625 2.734375 -0.304688 1.984375 -1.234375 C 1.234375 -2.160156 0.859375 -3.738281 0.859375 -5.96875 C 0.859375 -8.0625 1.304688 -9.601562 2.203125 -10.59375 C 3.097656 -11.59375 4.507812 -12.09375 6.4375 -12.09375 C 7.09375 -12.09375 7.71875 -12.078125 8.3125 -12.046875 C 8.914062 -12.015625 9.410156 -11.96875 9.796875 -11.90625 L 9.796875 -10.484375 C 9.285156 -10.535156 8.734375 -10.570312 8.140625 -10.59375 C 7.554688 -10.613281 6.988281 -10.625 6.4375 -10.625 C 4.988281 -10.625 3.96875 -10.269531 3.375 -9.5625 C 2.789062 -8.851562 2.5 -7.65625 2.5 -5.96875 C 2.5 -5.125 2.546875 -4.421875 2.640625 -3.859375 C 2.742188 -3.296875 2.898438 -2.84375 3.109375 -2.5 C 3.367188 -2.070312 3.726562 -1.765625 4.1875 -1.578125 C 4.65625 -1.398438 5.34375 -1.3125 6.25 -1.3125 C 6.601562 -1.3125 7.019531 -1.335938 7.5 -1.390625 C 7.976562 -1.453125 8.453125 -1.53125 8.921875 -1.625 Z M 8.921875 -4.875 "/></g></g><g style="fill:#277df1;fill-opacity:1;"><g transform="translate(140.319723, 61.027309)"><path style="stroke:none" d="M 9.265625 -1.515625 L 9.265625 0 L 1.359375 0 L 1.359375 -11.90625 L 9.09375 -11.90625 L 9.09375 -10.4375 L 2.984375 -10.4375 L 2.984375 -6.796875 L 8.390625 -6.796875 L 8.390625 -5.375 L 2.984375 -5.375 L 2.984375 -1.515625 Z M 9.265625 -1.515625 "/></g></g><g style="fill:#277df1;fill-opacity:1;"><g transform="translate(155.270629, 61.027309)"><path style="stroke:none" d="M 11.109375 -11.90625 L 11.109375 0 L 9.46875 0 L 2.890625 -9.265625 L 2.890625 0 L 1.359375 0 L 1.359375 -11.90625 L 3 -11.90625 L 9.59375 -2.5 L 9.59375 -11.90625 Z M 11.109375 -11.90625 "/></g></g><g style="fill:#277df1;fill-opacity:1;"><g transform="translate(172.763457, 61.027309)"><path style="stroke:none" d="M 2.984375 0 L 1.359375 0 L 1.359375 -11.90625 L 2.984375 -11.90625 L 2.984375 -6.78125 L 9.203125 -6.78125 L 9.203125 -11.90625 L 10.828125 -11.90625 L 10.828125 0 L 9.203125 0 L 9.203125 -5.296875 L 2.984375 -5.296875 Z M 2.984375 0 "/></g></g><g style="fill:#277df1;fill-opacity:1;"><g transform="translate(189.97174, 61.027309)"><path style="stroke:none" d="M 1.859375 0 L 0.15625 0 L 4.859375 -11.90625 L 6.53125 -11.90625 L 11.1875 0 L 9.46875 0 L 8.390625 -2.859375 L 2.9375 -2.859375 Z M 5.65625 -10.421875 C 5.53125 -9.984375 5.378906 -9.515625 5.203125 -9.015625 C 5.035156 -8.523438 4.863281 -8.03125 4.6875 -7.53125 L 3.46875 -4.296875 L 7.859375 -4.296875 L 6.640625 -7.53125 C 6.390625 -8.226562 6.191406 -8.789062 6.046875 -9.21875 C 5.898438 -9.65625 5.769531 -10.054688 5.65625 -10.421875 Z M 5.65625 -10.421875 "/></g></g><g style="fill:#277df1;fill-opacity:1;"><g transform="translate(206.34536, 61.027309)"><path style="stroke:none" d="M 2.984375 -4.265625 L 2.984375 0 L 1.359375 0 L 1.359375 -11.90625 L 5.40625 -11.90625 C 7.09375 -11.90625 8.300781 -11.613281 9.03125 -11.03125 C 9.757812 -10.457031 10.125 -9.507812 10.125 -8.1875 C 10.125 -7.144531 9.890625 -6.316406 9.421875 -5.703125 C 8.960938 -5.085938 8.265625 -4.675781 7.328125 -4.46875 L 10.4375 0 L 8.5 0 L 5.625 -4.265625 Z M 8.484375 -8.1875 C 8.484375 -8.988281 8.25 -9.5625 7.78125 -9.90625 C 7.3125 -10.257812 6.519531 -10.4375 5.40625 -10.4375 L 2.984375 -10.4375 L 2.984375 -5.6875 L 5.40625 -5.6875 C 6.5 -5.6875 7.285156 -5.882812 7.765625 -6.28125 C 8.242188 -6.675781 8.484375 -7.3125 8.484375 -8.1875 Z M 8.484375 -8.1875 "/></g></g><g style="fill:#277df1;fill-opacity:1;"><g transform="translate(222.358564, 61.027309)"><path style="stroke:none" d="M 2.984375 -11.90625 L 2.984375 0 L 1.359375 0 L 1.359375 -11.90625 Z M 2.984375 -11.90625 "/></g></g><g style="fill:#277df1;fill-opacity:1;"><g transform="translate(231.732418, 61.027309)"><path style="stroke:none" d="M 1.859375 0 L 0.15625 0 L 4.859375 -11.90625 L 6.53125 -11.90625 L 11.1875 0 L 9.46875 0 L 8.390625 -2.859375 L 2.9375 -2.859375 Z M 5.65625 -10.421875 C 5.53125 -9.984375 5.378906 -9.515625 5.203125 -9.015625 C 5.035156 -8.523438 4.863281 -8.03125 4.6875 -7.53125 L 3.46875 -4.296875 L 7.859375 -4.296875 L 6.640625 -7.53125 C 6.390625 -8.226562 6.191406 -8.789062 6.046875 -9.21875 C 5.898438 -9.65625 5.769531 -10.054688 5.65625 -10.421875 Z M 5.65625 -10.421875 "/></g></g></g></svg>