<svg xmlns="http://www.w3.org/2000/svg" xmlns:xlink="http://www.w3.org/1999/xlink" width="500" zoomAndPan="magnify" viewBox="0 0 375 374.999991" height="500" preserveAspectRatio="xMidYMid meet" version="1.2"><defs><clipPath id="bb18c0c71c"><path d="M 74 138 L 105.21875 138 L 105.21875 202 L 74 202 Z M 74 138 "/></clipPath><clipPath id="96f1ed8065"><path d="M 32 128.683594 L 91 128.683594 L 91 162 L 32 162 Z M 32 128.683594 "/></clipPath></defs><g id="557e890a56"><g clip-rule="nonzero" clip-path="url(#bb18c0c71c)"><path style=" stroke:none;fill-rule:nonzero;fill:#1743c0;fill-opacity:1;" d="M 102.191406 170.5625 L 105.304688 165.179688 L 90.089844 138.882812 L 80.363281 155.785156 C 80.0625 155.726562 79.757812 155.691406 79.449219 155.691406 C 76.707031 155.691406 74.472656 157.921875 74.472656 160.664062 C 74.472656 163.40625 76.707031 165.640625 79.449219 165.640625 C 79.757812 165.640625 80.0625 165.601562 80.363281 165.546875 L 90.828125 183.617188 L 86.082031 191.832031 C 84.074219 191.464844 81.960938 192.355469 80.878906 194.226562 C 79.515625 196.601562 80.328125 199.648438 82.703125 201.019531 C 83.484375 201.472656 84.339844 201.683594 85.179688 201.683594 C 86.90625 201.683594 88.578125 200.789062 89.5 199.199219 C 90.578125 197.328125 90.289062 195.050781 88.957031 193.492188 L 94.664062 183.621094 L 83.222656 163.871094 C 83.960938 163.003906 84.425781 161.894531 84.425781 160.667969 C 84.425781 159.441406 83.964844 158.332031 83.222656 157.46875 L 90.097656 145.519531 L 101.476562 165.183594 L 99.3125 168.914062 C 98.1875 168.707031 96.988281 168.859375 95.925781 169.480469 C 93.546875 170.851562 92.734375 173.902344 94.109375 176.277344 C 95.03125 177.867188 96.703125 178.757812 98.425781 178.757812 C 99.269531 178.757812 100.125 178.546875 100.90625 178.089844 C 103.28125 176.71875 104.09375 173.671875 102.71875 171.296875 C 102.566406 171.03125 102.386719 170.792969 102.191406 170.566406 Z M 86.625 197.539062 C 86.164062 198.328125 85.144531 198.59375 84.359375 198.148438 C 83.570312 197.691406 83.296875 196.675781 83.75 195.882812 C 84.058594 195.351562 84.617188 195.054688 85.191406 195.054688 C 85.472656 195.054688 85.757812 195.121094 86.015625 195.273438 C 86.808594 195.734375 87.082031 196.742188 86.625 197.539062 Z M 77.789062 160.667969 C 77.789062 159.757812 78.535156 159.011719 79.449219 159.011719 C 80.359375 159.011719 81.105469 159.757812 81.105469 160.667969 C 81.105469 161.578125 80.359375 162.324219 79.449219 162.324219 C 78.535156 162.324219 77.789062 161.578125 77.789062 160.667969 Z M 100.011719 174.210938 C 99.898438 174.640625 99.625 174.992188 99.246094 175.21875 C 98.445312 175.667969 97.429688 175.402344 96.972656 174.613281 C 96.515625 173.820312 96.789062 172.804688 97.578125 172.34375 C 97.84375 172.195312 98.128906 172.125 98.410156 172.125 C 98.984375 172.125 99.539062 172.421875 99.847656 172.949219 C 100.066406 173.335938 100.128906 173.785156 100.015625 174.210938 Z M 100.011719 174.210938 "/></g><g clip-rule="nonzero" clip-path="url(#96f1ed8065)"><path style=" stroke:none;fill-rule:nonzero;fill:#277df1;fill-opacity:1;" d="M 56.835938 161.644531 C 59.578125 161.644531 61.808594 159.414062 61.808594 156.671875 C 61.808594 155.441406 61.339844 154.328125 60.597656 153.457031 L 71.019531 135.335938 L 80.519531 135.335938 C 81.207031 137.261719 83.027344 138.652344 85.1875 138.652344 C 87.929688 138.652344 90.160156 136.421875 90.160156 133.679688 C 90.160156 130.9375 87.929688 128.703125 85.1875 128.703125 C 83.027344 128.703125 81.207031 130.09375 80.519531 132.019531 L 69.101562 132.019531 L 57.734375 151.789062 C 57.441406 151.734375 57.140625 151.699219 56.832031 151.699219 C 54.675781 151.699219 52.855469 153.085938 52.164062 155.003906 L 38.414062 155.003906 L 49.765625 135.335938 L 54.089844 135.335938 C 54.488281 136.449219 55.203125 137.410156 56.238281 138.003906 C 57 138.445312 57.851562 138.671875 58.714844 138.671875 C 59.144531 138.671875 59.585938 138.613281 60.011719 138.5 C 61.296875 138.15625 62.371094 137.324219 63.03125 136.175781 C 64.398438 133.796875 63.578125 130.753906 61.207031 129.386719 C 60.054688 128.71875 58.710938 128.542969 57.433594 128.890625 C 56.144531 129.234375 55.074219 130.0625 54.414062 131.210938 C 54.261719 131.46875 54.144531 131.746094 54.046875 132.019531 L 47.847656 132.019531 L 32.671875 158.320312 L 52.164062 158.320312 C 52.847656 160.25 54.675781 161.644531 56.839844 161.644531 Z M 85.1875 132.019531 C 86.101562 132.019531 86.847656 132.765625 86.847656 133.679688 C 86.847656 134.589844 86.101562 135.335938 85.1875 135.335938 C 84.277344 135.335938 83.53125 134.589844 83.53125 133.679688 C 83.53125 132.765625 84.277344 132.019531 85.1875 132.019531 Z M 57.285156 132.867188 C 57.503906 132.484375 57.863281 132.210938 58.289062 132.09375 C 58.433594 132.058594 58.578125 132.035156 58.726562 132.035156 C 59.011719 132.035156 59.292969 132.109375 59.546875 132.253906 C 59.929688 132.476562 60.203125 132.835938 60.316406 133.265625 C 60.433594 133.691406 60.375 134.140625 60.152344 134.523438 C 59.933594 134.90625 59.574219 135.179688 59.144531 135.296875 C 58.714844 135.40625 58.269531 135.351562 57.886719 135.128906 C 57.503906 134.910156 57.230469 134.550781 57.113281 134.121094 C 57 133.695312 57.058594 133.246094 57.28125 132.863281 Z M 56.835938 155.015625 C 57.746094 155.015625 58.492188 155.761719 58.492188 156.671875 C 58.492188 157.585938 57.746094 158.332031 56.835938 158.332031 C 55.921875 158.332031 55.175781 157.585938 55.175781 156.671875 C 55.175781 155.761719 55.921875 155.015625 56.835938 155.015625 Z M 56.835938 155.015625 "/></g><path style=" stroke:none;fill-rule:nonzero;fill:#5ce1e6;fill-opacity:1;" d="M 69.667969 178.25 C 69.667969 175.507812 67.4375 173.277344 64.695312 173.277344 C 62.535156 173.277344 60.710938 174.664062 60.023438 176.59375 L 39.117188 176.621094 L 34.371094 168.410156 C 35.699219 166.851562 35.992188 164.578125 34.914062 162.707031 C 33.546875 160.335938 30.5 159.523438 28.121094 160.882812 C 25.746094 162.257812 24.929688 165.304688 26.300781 167.683594 C 27.21875 169.273438 28.894531 170.167969 30.617188 170.167969 C 30.914062 170.167969 31.203125 170.109375 31.496094 170.054688 L 37.210938 179.941406 L 60.027344 179.910156 C 60.714844 181.839844 62.539062 183.226562 64.699219 183.226562 C 65.007812 183.226562 65.3125 183.191406 65.609375 183.136719 L 72.472656 195.0625 L 49.765625 195.0625 L 47.609375 191.339844 C 48.359375 190.464844 48.828125 189.347656 48.828125 188.105469 C 48.828125 185.367188 46.589844 183.136719 43.847656 183.136719 C 41.105469 183.144531 38.878906 185.375 38.882812 188.117188 C 38.882812 189.445312 39.398438 190.695312 40.335938 191.632812 C 41.277344 192.574219 42.523438 193.085938 43.847656 193.085938 L 43.859375 193.085938 C 44.160156 193.085938 44.449219 193.050781 44.738281 192.996094 L 47.855469 198.378906 L 78.203125 198.378906 L 68.46875 181.457031 C 69.207031 180.589844 69.667969 179.476562 69.667969 178.253906 Z M 29.167969 166.027344 C 28.710938 165.234375 28.984375 164.214844 29.777344 163.757812 C 30.554688 163.292969 31.582031 163.570312 32.042969 164.367188 C 32.5 165.15625 32.230469 166.171875 31.433594 166.632812 C 30.648438 167.085938 29.621094 166.816406 29.167969 166.027344 Z M 43.851562 189.765625 C 43.410156 189.765625 42.992188 189.59375 42.683594 189.28125 C 42.367188 188.96875 42.199219 188.554688 42.199219 188.109375 C 42.199219 187.195312 42.941406 186.449219 43.851562 186.449219 C 44.765625 186.449219 45.511719 187.195312 45.515625 188.101562 C 45.515625 189.015625 44.769531 189.765625 43.855469 189.765625 Z M 63.035156 178.25 C 63.035156 177.339844 63.78125 176.59375 64.695312 176.59375 C 65.605469 176.59375 66.351562 177.339844 66.351562 178.25 C 66.351562 179.160156 65.605469 179.90625 64.695312 179.90625 C 63.78125 179.90625 63.035156 179.160156 63.035156 178.25 Z M 63.035156 178.25 "/><g style="fill:#1743c0;fill-opacity:1;"><g transform="translate(116.573676, 162.442093)"><path style="stroke:none" d="M 18.546875 -3.046875 L 18.546875 0 L 2.734375 0 L 2.734375 -23.828125 L 18.203125 -23.828125 L 18.203125 -20.90625 L 5.96875 -20.90625 L 5.96875 -13.609375 L 16.796875 -13.609375 L 16.796875 -10.75 L 5.96875 -10.75 L 5.96875 -3.046875 Z M 18.546875 -3.046875 "/></g></g><g style="fill:#1743c0;fill-opacity:1;"><g transform="translate(137.317613, 162.442093)"><path style="stroke:none" d="M 22.234375 -23.828125 L 22.234375 0 L 18.96875 0 L 5.78125 -18.546875 L 5.78125 0 L 2.734375 0 L 2.734375 -23.828125 L 6 -23.828125 L 19.1875 -5.015625 L 19.1875 -23.828125 Z M 22.234375 -23.828125 "/></g></g><g style="fill:#1743c0;fill-opacity:1;"><g transform="translate(163.152511, 162.442093)"><path style="stroke:none" d="M 17.859375 -9.765625 L 11.671875 -9.765625 L 11.671875 -12.609375 L 20.90625 -12.609375 L 20.90625 -1.140625 C 20.195312 -0.804688 18.925781 -0.484375 17.09375 -0.171875 C 15.269531 0.140625 13.613281 0.296875 12.125 0.296875 C 8.195312 0.296875 5.476562 -0.625 3.96875 -2.46875 C 2.457031 -4.320312 1.703125 -7.476562 1.703125 -11.9375 C 1.703125 -16.132812 2.601562 -19.226562 4.40625 -21.21875 C 6.207031 -23.207031 9.03125 -24.203125 12.875 -24.203125 C 14.195312 -24.203125 15.457031 -24.171875 16.65625 -24.109375 C 17.863281 -24.046875 18.847656 -23.953125 19.609375 -23.828125 L 19.609375 -20.96875 C 18.597656 -21.070312 17.5 -21.148438 16.3125 -21.203125 C 15.132812 -21.253906 13.988281 -21.28125 12.875 -21.28125 C 9.988281 -21.28125 7.957031 -20.570312 6.78125 -19.15625 C 5.601562 -17.738281 5.015625 -15.332031 5.015625 -11.9375 C 5.015625 -10.257812 5.109375 -8.859375 5.296875 -7.734375 C 5.492188 -6.609375 5.804688 -5.703125 6.234375 -5.015625 C 6.734375 -4.148438 7.453125 -3.535156 8.390625 -3.171875 C 9.328125 -2.804688 10.695312 -2.625 12.5 -2.625 C 13.207031 -2.625 14.039062 -2.679688 15 -2.796875 C 15.96875 -2.910156 16.921875 -3.066406 17.859375 -3.265625 Z M 17.859375 -9.765625 "/></g></g><g style="fill:#1743c0;fill-opacity:1;"><g transform="translate(186.669878, 162.442093)"><path style="stroke:none" d="M 18.546875 -3.046875 L 18.546875 0 L 2.734375 0 L 2.734375 -23.828125 L 18.203125 -23.828125 L 18.203125 -20.90625 L 5.96875 -20.90625 L 5.96875 -13.609375 L 16.796875 -13.609375 L 16.796875 -10.75 L 5.96875 -10.75 L 5.96875 -3.046875 Z M 18.546875 -3.046875 "/></g></g><g style="fill:#1743c0;fill-opacity:1;"><g transform="translate(207.413815, 162.442093)"><path style="stroke:none" d="M 17.328125 -3.046875 L 17.328125 0 L 2.734375 0 L 2.734375 -23.828125 L 5.96875 -23.828125 L 5.96875 -3.046875 Z M 17.328125 -3.046875 "/></g></g><g style="fill:#1743c0;fill-opacity:1;"><g transform="translate(226.220153, 162.442093)"><path style="stroke:none" d="M 18.546875 -3.046875 L 18.546875 0 L 2.734375 0 L 2.734375 -23.828125 L 18.203125 -23.828125 L 18.203125 -20.90625 L 5.96875 -20.90625 L 5.96875 -13.609375 L 16.796875 -13.609375 L 16.796875 -10.75 L 5.96875 -10.75 L 5.96875 -3.046875 Z M 18.546875 -3.046875 "/></g></g><g style="fill:#1743c0;fill-opacity:1;"><g transform="translate(246.964091, 162.442093)"><path style="stroke:none" d="M 19.609375 -23.828125 L 19.609375 -20.90625 L 11.703125 -20.90625 L 11.703125 0 L 8.46875 0 L 8.46875 -20.90625 L 0.5625 -20.90625 L 0.5625 -23.828125 Z M 19.609375 -23.828125 "/></g></g><g style="fill:#1743c0;fill-opacity:1;"><g transform="translate(268.01196, 162.442093)"><path style="stroke:none" d="M 5.96875 -8.546875 L 5.96875 0 L 2.734375 0 L 2.734375 -23.828125 L 10.828125 -23.828125 C 14.203125 -23.828125 16.613281 -23.25 18.0625 -22.09375 C 19.519531 -20.945312 20.25 -19.039062 20.25 -16.375 C 20.25 -14.300781 19.785156 -12.648438 18.859375 -11.421875 C 17.941406 -10.191406 16.546875 -9.363281 14.671875 -8.9375 L 20.90625 0 L 17.03125 0 L 11.25 -8.546875 Z M 16.984375 -16.375 C 16.984375 -18 16.515625 -19.160156 15.578125 -19.859375 C 14.640625 -20.554688 13.054688 -20.90625 10.828125 -20.90625 L 5.96875 -20.90625 L 5.96875 -11.40625 L 10.828125 -11.40625 C 13.003906 -11.40625 14.570312 -11.796875 15.53125 -12.578125 C 16.5 -13.359375 16.984375 -14.625 16.984375 -16.375 Z M 16.984375 -16.375 "/></g></g><g style="fill:#1743c0;fill-opacity:1;"><g transform="translate(290.883457, 162.442093)"><path style="stroke:none" d="M 22.953125 -11.96875 C 22.953125 -7.632812 22.117188 -4.503906 20.453125 -2.578125 C 18.796875 -0.660156 16.09375 0.296875 12.34375 0.296875 C 8.320312 0.296875 5.539062 -0.59375 4 -2.375 C 2.46875 -4.15625 1.703125 -7.351562 1.703125 -11.96875 C 1.703125 -16.28125 2.535156 -19.394531 4.203125 -21.3125 C 5.878906 -23.238281 8.59375 -24.203125 12.34375 -24.203125 C 16.375 -24.203125 19.148438 -23.304688 20.671875 -21.515625 C 22.191406 -19.734375 22.953125 -16.550781 22.953125 -11.96875 Z M 6.125 -5.09375 C 6.601562 -4.226562 7.3125 -3.617188 8.25 -3.265625 C 9.1875 -2.910156 10.550781 -2.734375 12.34375 -2.734375 C 15.15625 -2.734375 17.082031 -3.410156 18.125 -4.765625 C 19.164062 -6.117188 19.6875 -8.519531 19.6875 -11.96875 C 19.6875 -13.6875 19.597656 -15.097656 19.421875 -16.203125 C 19.242188 -17.304688 18.960938 -18.203125 18.578125 -18.890625 C 18.097656 -19.742188 17.394531 -20.351562 16.46875 -20.71875 C 15.550781 -21.09375 14.175781 -21.28125 12.34375 -21.28125 C 9.507812 -21.28125 7.570312 -20.59375 6.53125 -19.21875 C 5.5 -17.851562 4.984375 -15.4375 4.984375 -11.96875 C 4.984375 -10.25 5.070312 -8.835938 5.25 -7.734375 C 5.425781 -6.628906 5.71875 -5.75 6.125 -5.09375 Z M 6.125 -5.09375 "/></g></g><g style="fill:#1743c0;fill-opacity:1;"><g transform="translate(316.414423, 162.442093)"><path style="stroke:none" d="M 22.234375 -23.828125 L 22.234375 0 L 18.96875 0 L 5.78125 -18.546875 L 5.78125 0 L 2.734375 0 L 2.734375 -23.828125 L 6 -23.828125 L 19.1875 -5.015625 L 19.1875 -23.828125 Z M 22.234375 -23.828125 "/></g></g><g style="fill:#1743c0;fill-opacity:1;"><g transform="translate(118.193494, 193.215191)"><path style="stroke:none" d="M 8.78125 -1.4375 L 8.78125 0 L 1.296875 0 L 1.296875 -11.28125 L 8.625 -11.28125 L 8.625 -9.90625 L 2.828125 -9.90625 L 2.828125 -6.4375 L 7.953125 -6.4375 L 7.953125 -5.09375 L 2.828125 -5.09375 L 2.828125 -1.4375 Z M 8.78125 -1.4375 "/></g></g><g style="fill:#1743c0;fill-opacity:1;"><g transform="translate(132.37745, 193.215191)"><path style="stroke:none" d="M 10.53125 -11.28125 L 10.53125 0 L 8.984375 0 L 2.734375 -8.78125 L 2.734375 0 L 1.296875 0 L 1.296875 -11.28125 L 2.84375 -11.28125 L 9.09375 -2.375 L 9.09375 -11.28125 Z M 10.53125 -11.28125 "/></g></g><g style="fill:#1743c0;fill-opacity:1;"><g transform="translate(148.973407, 193.215191)"><path style="stroke:none" d="M 8.453125 -4.625 L 5.53125 -4.625 L 5.53125 -5.96875 L 9.90625 -5.96875 L 9.90625 -0.546875 C 9.5625 -0.390625 8.957031 -0.234375 8.09375 -0.078125 C 7.226562 0.0664062 6.441406 0.140625 5.734375 0.140625 C 3.878906 0.140625 2.59375 -0.296875 1.875 -1.171875 C 1.164062 -2.046875 0.8125 -3.539062 0.8125 -5.65625 C 0.8125 -7.644531 1.234375 -9.109375 2.078125 -10.046875 C 2.929688 -10.992188 4.273438 -11.46875 6.109375 -11.46875 C 6.722656 -11.46875 7.316406 -11.453125 7.890625 -11.421875 C 8.460938 -11.390625 8.925781 -11.34375 9.28125 -11.28125 L 9.28125 -9.9375 C 8.800781 -9.988281 8.28125 -10.023438 7.71875 -10.046875 C 7.164062 -10.066406 6.628906 -10.078125 6.109375 -10.078125 C 4.734375 -10.078125 3.765625 -9.738281 3.203125 -9.0625 C 2.648438 -8.394531 2.375 -7.257812 2.375 -5.65625 C 2.375 -4.863281 2.414062 -4.195312 2.5 -3.65625 C 2.59375 -3.125 2.742188 -2.695312 2.953125 -2.375 C 3.191406 -1.96875 3.53125 -1.675781 3.96875 -1.5 C 4.414062 -1.320312 5.066406 -1.234375 5.921875 -1.234375 C 6.253906 -1.234375 6.648438 -1.257812 7.109375 -1.3125 C 7.566406 -1.375 8.015625 -1.453125 8.453125 -1.546875 Z M 8.453125 -4.625 "/></g></g><g style="fill:#1743c0;fill-opacity:1;"><g transform="translate(164.471361, 193.215191)"><path style="stroke:none" d="M 8.78125 -1.4375 L 8.78125 0 L 1.296875 0 L 1.296875 -11.28125 L 8.625 -11.28125 L 8.625 -9.90625 L 2.828125 -9.90625 L 2.828125 -6.4375 L 7.953125 -6.4375 L 7.953125 -5.09375 L 2.828125 -5.09375 L 2.828125 -1.4375 Z M 8.78125 -1.4375 "/></g></g><g style="fill:#1743c0;fill-opacity:1;"><g transform="translate(178.655317, 193.215191)"><path style="stroke:none" d="M 10.53125 -11.28125 L 10.53125 0 L 8.984375 0 L 2.734375 -8.78125 L 2.734375 0 L 1.296875 0 L 1.296875 -11.28125 L 2.84375 -11.28125 L 9.09375 -2.375 L 9.09375 -11.28125 Z M 10.53125 -11.28125 "/></g></g><g style="fill:#1743c0;fill-opacity:1;"><g transform="translate(195.251274, 193.215191)"><path style="stroke:none" d="M 2.828125 0 L 1.296875 0 L 1.296875 -11.28125 L 2.828125 -11.28125 L 2.828125 -6.421875 L 8.734375 -6.421875 L 8.734375 -11.28125 L 10.265625 -11.28125 L 10.265625 0 L 8.734375 0 L 8.734375 -5.015625 L 2.828125 -5.015625 Z M 2.828125 0 "/></g></g><g style="fill:#1743c0;fill-opacity:1;"><g transform="translate(211.577231, 193.215191)"><path style="stroke:none" d="M 1.765625 0 L 0.140625 0 L 4.609375 -11.28125 L 6.1875 -11.28125 L 10.609375 0 L 8.984375 0 L 7.953125 -2.71875 L 2.796875 -2.71875 Z M 5.359375 -9.875 C 5.242188 -9.457031 5.101562 -9.015625 4.9375 -8.546875 C 4.78125 -8.078125 4.617188 -7.609375 4.453125 -7.140625 L 3.296875 -4.0625 L 7.453125 -4.0625 L 6.296875 -7.140625 C 6.054688 -7.804688 5.867188 -8.34375 5.734375 -8.75 C 5.597656 -9.15625 5.472656 -9.53125 5.359375 -9.875 Z M 5.359375 -9.875 "/></g></g><g style="fill:#1743c0;fill-opacity:1;"><g transform="translate(227.111189, 193.215191)"><path style="stroke:none" d="M 2.828125 -4.046875 L 2.828125 0 L 1.296875 0 L 1.296875 -11.28125 L 5.125 -11.28125 C 6.726562 -11.28125 7.875 -11.003906 8.5625 -10.453125 C 9.25 -9.910156 9.59375 -9.015625 9.59375 -7.765625 C 9.59375 -6.773438 9.375 -5.988281 8.9375 -5.40625 C 8.5 -4.820312 7.835938 -4.429688 6.953125 -4.234375 L 9.90625 0 L 8.0625 0 L 5.328125 -4.046875 Z M 8.046875 -7.765625 C 8.046875 -8.523438 7.820312 -9.070312 7.375 -9.40625 C 6.9375 -9.738281 6.1875 -9.90625 5.125 -9.90625 L 2.828125 -9.90625 L 2.828125 -5.40625 L 5.125 -5.40625 C 6.15625 -5.40625 6.898438 -5.585938 7.359375 -5.953125 C 7.816406 -6.328125 8.046875 -6.929688 8.046875 -7.765625 Z M 8.046875 -7.765625 "/></g></g><g style="fill:#1743c0;fill-opacity:1;"><g transform="translate(242.303151, 193.215191)"><path style="stroke:none" d="M 2.828125 -11.28125 L 2.828125 0 L 1.296875 0 L 1.296875 -11.28125 Z M 2.828125 -11.28125 "/></g></g><g style="fill:#1743c0;fill-opacity:1;"><g transform="translate(251.19513, 193.215191)"><path style="stroke:none" d="M 1.765625 0 L 0.140625 0 L 4.609375 -11.28125 L 6.1875 -11.28125 L 10.609375 0 L 8.984375 0 L 7.953125 -2.71875 L 2.796875 -2.71875 Z M 5.359375 -9.875 C 5.242188 -9.457031 5.101562 -9.015625 4.9375 -8.546875 C 4.78125 -8.078125 4.617188 -7.609375 4.453125 -7.140625 L 3.296875 -4.0625 L 7.453125 -4.0625 L 6.296875 -7.140625 C 6.054688 -7.804688 5.867188 -8.34375 5.734375 -8.75 C 5.597656 -9.15625 5.472656 -9.53125 5.359375 -9.875 Z M 5.359375 -9.875 "/></g></g></g></svg>